<?xml version="1.0" standalone="no"?>
<!DOCTYPE svg PUBLIC "-//W3C//DTD SVG 20010904//EN"
 "http://www.w3.org/TR/2001/REC-SVG-20010904/DTD/svg10.dtd">
<svg version="1.0" xmlns="http://www.w3.org/2000/svg"
 width="640.000000pt" height="640.000000pt" viewBox="0 0 640.000000 640.000000"
 preserveAspectRatio="xMidYMid meet">
<metadata>
Created by potrace 1.14, written by Peter Selinger 2001-2017
</metadata>
<g transform="translate(0.000000,640.000000) scale(0.100000,-0.100000)"
fill="#000000" stroke="none">
<path d="M4623 6378 c-18 -11 -38 -21 -45 -22 -35 -5 -232 -129 -332 -209 -39
-31 -74 -53 -78 -51 -5 3 -7 1 -6 -4 5 -15 -52 -63 -65 -56 -7 4 -9 4 -5 0 10
-11 -28 -49 -41 -42 -6 4 -9 1 -6 -6 3 -8 -27 -46 -72 -90 -43 -42 -91 -93
-106 -113 -16 -19 -33 -32 -39 -29 -6 4 -8 3 -4 -4 3 -6 -4 -18 -16 -27 -13
-8 -21 -18 -19 -21 2 -4 -8 -18 -21 -33 -28 -29 -142 -186 -175 -241 -66 -108
-87 -146 -85 -152 3 -10 -11 -10 -83 2 -33 6 -174 10 -313 10 l-254 0 21 34
c25 39 27 74 6 83 -26 9 -105 -27 -139 -65 -18 -19 -38 -32 -44 -28 -13 8 -39
120 -48 206 -3 36 -11 68 -17 72 -18 11 -67 -23 -109 -76 -31 -39 -113 -188
-129 -235 -3 -6 -25 -3 -63 9 -137 46 -223 6 -146 -67 17 -15 30 -31 30 -34 0
-7 -94 -41 -120 -44 -8 0 -24 -6 -36 -13 -11 -6 -56 -25 -100 -42 -43 -17 -86
-37 -94 -43 -47 -37 -122 -55 -103 -25 4 7 1 9 -9 6 -8 -4 -28 0 -44 7 -82 36
-111 47 -254 93 -160 52 -383 110 -453 118 -23 3 -44 7 -47 9 -3 2 -78 11
-165 20 -180 19 -377 16 -535 -9 -52 -8 -114 -17 -138 -20 -24 -3 -57 -12 -74
-20 -17 -9 -33 -14 -37 -11 -14 8 -12 -151 2 -205 41 -151 119 -330 145 -330
7 0 28 16 48 35 38 38 58 43 91 20 29 -20 63 -97 63 -144 0 -47 -26 -123 -45
-134 -8 -4 -15 -15 -15 -23 0 -39 105 -172 289 -366 l63 -67 -33 -46 c-24 -33
-35 -42 -41 -33 -6 9 -7 6 -4 -8 7 -23 -36 -89 -49 -76 -5 4 -5 1 -1 -5 4 -7
-11 -39 -34 -73 -22 -34 -40 -64 -40 -67 0 -3 -8 -17 -19 -31 -10 -15 -32 -61
-49 -102 -93 -233 -164 -542 -141 -624 8 -31 14 -36 39 -36 35 0 60 9 60 21 0
10 82 100 137 152 43 39 71 53 126 61 39 6 49 4 66 -13 23 -23 31 -109 9 -95
-7 4 -8 3 -4 -4 10 -17 -34 -114 -50 -108 -8 3 -11 0 -8 -9 4 -8 -11 -26 -38
-45 -24 -17 -43 -36 -42 -41 1 -5 2 -16 3 -24 1 -18 62 -21 92 -4 38 20 133
40 194 41 61 1 107 -17 118 -46 17 -44 -115 -136 -195 -136 -31 0 -38 -4 -38
-19 0 -14 18 -28 65 -50 82 -39 340 -125 422 -141 35 -7 63 -16 63 -21 0 -4 9
-6 21 -4 11 2 39 -2 62 -9 40 -13 77 -20 267 -49 47 -7 153 -15 235 -16 83 -1
179 -6 215 -11 36 -5 130 -10 210 -10 l145 0 -160 -81 c-140 -72 -339 -193
-415 -254 -14 -11 -61 -55 -106 -98 -98 -94 -134 -158 -141 -252 -9 -108 29
-248 80 -295 l22 -21 -33 -25 c-35 -28 -64 -86 -60 -120 1 -12 -3 -29 -11 -38
-17 -21 -16 -102 2 -130 11 -17 12 -38 5 -101 -12 -103 -3 -353 15 -427 10
-41 11 -58 3 -58 -6 0 -6 -4 2 -9 8 -4 13 -11 13 -15 -1 -3 -1 -7 0 -8 0 -2 2
-10 4 -18 11 -53 73 -214 110 -283 42 -79 45 -82 79 -83 l37 -1 -22 23 c-13
13 -18 24 -13 24 5 0 4 4 -2 8 -15 9 -87 154 -107 212 -29 90 -38 121 -43 148
-3 15 -7 33 -9 41 -12 33 -35 216 -35 277 0 79 21 244 30 244 15 0 60 54 60
72 0 10 7 21 15 24 8 4 15 10 15 15 0 4 -7 6 -15 3 -23 -9 -18 9 6 24 12 8 18
9 14 3 -3 -6 -4 -11 -1 -11 10 0 46 89 46 116 0 18 11 43 29 65 31 37 51 94
51 146 0 33 15 53 23 31 2 -7 3 -4 1 8 -2 11 9 41 24 65 16 24 31 52 35 62 4
10 12 15 17 12 6 -4 9 -2 8 3 -5 17 54 102 71 102 14 0 14 2 1 10 -10 6 -11
10 -2 10 6 0 12 6 12 13 0 14 68 84 76 79 3 -2 9 0 12 4 4 4 1 4 -5 0 -7 -4
-13 -5 -13 -2 0 9 71 48 77 42 3 -3 11 1 17 10 19 26 116 21 163 -9 46 -29
115 -106 107 -119 -3 -4 2 -11 10 -14 9 -3 21 -24 26 -45 6 -21 15 -39 20 -39
6 0 10 -17 11 -37 0 -29 2 -33 8 -18 8 19 8 19 15 -3 4 -13 5 -26 2 -29 -3 -3
1 -12 9 -20 8 -8 15 -20 15 -26 0 -7 -5 -6 -11 3 -9 12 -10 12 -5 -3 3 -10 6
-31 7 -45 l1 -27 7 25 c7 25 7 25 19 -9 7 -19 12 -45 12 -57 0 -13 5 -24 11
-24 6 0 9 -6 6 -12 -2 -7 -10 -12 -16 -10 -7 1 -10 -2 -6 -8 3 -6 10 -8 15 -5
5 3 14 -14 21 -37 6 -24 15 -56 20 -71 4 -15 6 -41 2 -57 -3 -18 -1 -30 5 -30
5 0 13 -21 17 -47 12 -75 12 -83 1 -83 -8 0 -8 -2 0 -8 14 -9 14 -42 0 -42 -6
0 -4 -5 4 -10 13 -8 13 -13 -3 -39 -9 -16 -17 -35 -16 -43 0 -7 5 -1 11 15 12
33 26 35 26 5 8 -292 6 -443 -6 -454 -8 -9 -11 -30 -8 -65 3 -29 1 -61 -5 -71
-6 -11 -6 -18 0 -18 6 0 6 -12 -1 -32 -5 -18 -10 -41 -10 -50 1 -10 -2 -18 -6
-18 -4 0 -7 -15 -8 -33 0 -18 -8 -47 -16 -65 -9 -18 -12 -30 -7 -27 5 4 4 -6
-3 -20 -11 -24 -13 -25 -19 -8 -4 10 -5 29 -3 43 4 23 4 24 -5 3 -6 -14 -6
-33 1 -57 l11 -36 749 0 748 0 0 23 c0 13 -11 62 -25 110 -14 48 -23 93 -19
99 4 6 3 9 -2 6 -5 -3 -25 30 -45 72 l-37 77 28 -10 c16 -6 26 -15 23 -21 -3
-5 -1 -6 5 -2 17 10 83 -4 75 -17 -3 -5 -2 -7 4 -4 5 3 48 -3 94 -14 305 -73
675 -79 974 -15 39 8 85 19 103 24 17 6 32 8 32 5 0 -3 6 -1 13 6 10 8 17 7
26 -2 10 -9 11 -8 5 6 -3 10 -3 17 2 15 12 -3 140 39 177 59 16 8 35 12 43 9
7 -3 13 0 11 6 -1 6 12 15 28 22 57 21 170 87 252 145 45 33 84 57 87 53 3 -3
6 2 6 10 0 9 25 35 55 59 30 24 54 49 55 55 0 6 9 19 21 30 88 80 211 325 238
478 16 87 14 402 -2 457 -8 24 -14 46 -15 49 -9 44 -110 244 -131 260 -3 3
-32 38 -64 78 -93 116 -176 192 -282 258 -42 26 -55 40 -47 49 4 5 -1 5 -10 2
-9 -3 -27 2 -40 12 -87 67 -452 201 -548 201 -16 0 -31 4 -34 9 -3 4 -74 7
-158 6 -142 -2 -190 -6 -228 -21 -8 -4 -24 -8 -35 -10 -124 -21 -325 -151
-417 -268 -22 -28 -47 -60 -56 -71 -10 -11 -23 -31 -30 -45 -7 -14 -24 -45
-38 -70 -20 -34 -27 -59 -27 -105 -1 -87 25 -129 86 -140 33 -7 40 -4 74 32
53 55 95 73 168 73 70 0 142 -30 189 -79 30 -31 46 -103 31 -138 -28 -66 0
-97 80 -89 30 3 60 8 65 11 22 13 94 -18 140 -61 104 -97 127 -219 76 -395
-27 -89 -123 -261 -142 -254 -6 2 -11 -2 -10 -10 2 -20 -84 -116 -97 -108 -7
3 -9 3 -5 -1 15 -17 -129 -131 -212 -167 -14 -5 -38 -16 -55 -24 -64 -28 -143
-53 -225 -71 -170 -36 -541 -17 -588 30 -12 11 -11 19 3 47 13 23 16 46 12 80
-6 45 -4 49 26 72 43 32 157 149 157 160 0 4 5 5 12 1 6 -4 8 -3 5 3 -4 6 6
28 21 49 103 148 131 351 71 519 -23 63 -101 219 -124 245 -7 8 -20 31 -30 50
-53 106 -325 369 -460 445 -140 78 -140 78 -73 89 14 2 36 9 47 16 12 6 21 8
21 5 0 -3 18 4 41 15 22 12 50 19 62 16 12 -3 16 -3 8 0 -16 8 97 57 171 74
75 18 299 92 388 130 41 17 107 44 145 60 68 28 267 128 332 166 103 62 126
73 141 68 13 -5 14 -4 3 4 -11 8 -11 11 0 18 8 5 16 9 19 9 15 1 170 128 170
140 0 8 -18 19 -42 25 -68 18 -111 43 -128 73 -15 28 -14 29 19 57 18 16 55
35 81 44 84 27 240 48 316 42 79 -6 94 1 94 46 0 33 -35 51 -121 61 -71 9
-130 29 -143 50 -8 12 -6 25 7 50 36 66 124 97 280 97 60 0 106 -4 103 -8 -6
-11 46 -14 62 -4 10 7 9 16 -3 46 -9 21 -14 45 -11 52 3 8 0 14 -6 14 -6 0 -9
3 -6 6 8 7 -137 293 -163 320 -10 11 -19 26 -19 32 0 7 -4 12 -8 12 -5 0 -15
12 -23 28 -8 15 -16 29 -19 32 -3 3 -25 30 -50 60 -68 85 -198 230 -291 325
l-59 60 25 95 c29 107 73 316 81 387 3 26 7 51 10 54 2 4 11 97 20 206 13 168
14 230 4 413 -17 294 -47 427 -115 508 -13 16 -21 32 -18 36 4 4 -1 4 -11 0
-13 -5 -17 -4 -13 3 5 8 -20 11 -80 11 -69 -1 -95 -5 -120 -20z m-130 -1353
c-3 -9 -8 -14 -10 -11 -3 3 -2 9 2 15 9 16 15 13 8 -4z m-3653 -249 c0 -3 -4
-8 -10 -11 -5 -3 -10 -1 -10 4 0 6 5 11 10 11 6 0 10 -2 10 -4z m1632 -313
c67 -69 78 -85 68 -103 -7 -12 -17 -16 -37 -12 -37 6 -85 41 -77 54 4 6 1 9
-7 6 -8 -3 -31 13 -52 34 -31 31 -36 41 -27 57 5 11 15 21 22 23 18 6 79 -27
110 -59z m994 -54 c8 -13 -15 -50 -50 -78 -17 -14 -37 -33 -46 -41 -25 -24
-103 -80 -113 -80 -4 0 -5 5 -1 12 5 8 2 9 -9 5 -10 -3 -17 -2 -17 3 0 6 5 10
10 10 6 0 10 7 10 15 0 22 90 116 103 108 5 -3 7 -2 4 3 -8 14 4 29 37 46 29
15 61 14 72 -3z m-1229 -373 c9 -9 -49 -6 -72 4 -14 5 -7 7 23 5 24 -1 46 -5
49 -9z m-97 -22 c0 -8 -4 -12 -10 -9 -5 3 -10 10 -10 16 0 5 5 9 10 9 6 0 10
-7 10 -16z m1540 -4 c-8 -5 -24 -9 -35 -9 -16 1 -16 2 5 9 35 11 48 11 30 0z
m-1550 -22 c0 -7 5 -7 13 0 10 8 16 6 25 -9 11 -16 16 -18 28 -9 7 7 23 10 34
7 12 -3 24 1 30 11 8 15 9 14 10 -6 0 -19 4 -22 21 -17 13 5 19 3 15 -3 -7
-12 18 -35 27 -25 4 3 18 -4 31 -16 15 -14 30 -20 37 -15 9 5 11 2 6 -9 -4
-11 -2 -14 9 -10 9 3 14 0 12 -8 -2 -8 4 -13 14 -13 10 1 16 -2 13 -6 -6 -9
29 -50 43 -50 6 0 14 -10 17 -22 5 -15 1 -26 -14 -37 -14 -11 -20 -26 -19 -43
1 -15 6 -24 10 -22 4 3 8 1 8 -3 0 -18 60 -43 103 -43 40 0 46 -3 57 -30 7
-16 16 -30 21 -30 13 0 11 18 -3 24 -7 3 -5 4 4 3 9 -1 23 6 30 16 12 16 14
16 25 -2 8 -13 9 -22 3 -26 -6 -3 -10 2 -10 12 -1 17 -1 17 -15 -1 -8 -10 -12
-23 -8 -29 3 -5 -1 -13 -8 -18 -11 -7 -11 -9 3 -9 9 0 19 8 21 18 4 14 5 14 6
-3 1 -16 -19 -29 -96 -65 -54 -25 -118 -59 -143 -75 -25 -17 -59 -36 -75 -43
-33 -12 -185 -13 -185 0 0 4 -7 8 -15 8 -21 0 -85 32 -85 42 0 5 5 6 12 2 7
-4 8 -3 4 5 -4 6 -12 9 -17 5 -5 -3 -18 5 -29 18 -26 32 -25 45 3 22 l22 -19
-19 22 c-10 13 -22 20 -27 17 -12 -7 -42 43 -33 57 4 8 3 9 -4 5 -31 -19 -52
243 -23 278 6 7 9 22 5 32 -5 16 -4 17 6 4 9 -12 11 -10 7 11 -2 18 2 31 14
40 10 7 16 16 13 21 -3 4 -1 8 5 8 5 0 11 -5 13 -11 2 -7 10 -4 18 7 9 11 10
15 3 10 -22 -13 -33 4 -15 23 17 18 42 17 42 -1z m1583 -22 c5 -7 10 -6 17 4
9 13 10 13 8 -2 -2 -9 1 -17 6 -16 14 0 26 -26 21 -47 -3 -11 -2 -14 1 -7 8
17 24 5 17 -13 -3 -8 -1 -15 4 -15 5 0 10 -19 11 -41 2 -55 -47 -149 -78 -149
-6 0 -8 -5 -4 -12 5 -7 0 -9 -14 -6 -14 4 -19 2 -15 -7 5 -15 -26 -35 -56 -35
-12 0 -21 5 -21 12 0 6 -3 8 -6 5 -4 -4 -1 -14 7 -24 9 -11 10 -14 2 -9 -8 4
-13 2 -13 -5 0 -7 -3 -10 -6 -6 -3 3 -24 -1 -46 -9 -22 -7 -44 -11 -49 -8 -5
3 -9 0 -9 -7 0 -6 -8 -9 -20 -6 -11 3 -20 2 -20 -3 0 -4 -33 1 -72 11 -83 22
-120 27 -230 28 -43 1 -78 5 -78 10 0 4 11 20 25 35 17 18 34 26 59 26 46 0
84 15 107 43 16 20 28 70 12 54 -3 -4 -12 -2 -19 3 -15 13 -7 50 11 50 8 0 27
8 44 18 26 14 33 15 40 3 6 -9 11 -10 15 -2 4 6 2 11 -4 11 -6 0 -8 5 -4 12 5
8 2 9 -9 5 -61 -25 -65 -21 -8 8 18 9 30 12 27 6 -10 -15 4 -14 38 4 20 11 32
12 36 5 4 -6 14 -8 23 -4 15 5 15 8 2 21 -16 16 -12 33 8 33 7 0 6 -4 -3 -11
-11 -8 -8 -9 15 -4 17 4 32 11 34 17 2 6 7 5 11 -3 7 -10 12 -10 23 -1 8 7 23
9 33 5 18 -7 18 -6 2 11 -26 26 -22 29 13 10 30 -15 33 -15 52 4 20 20 45 19
60 -2z m402 -188 c55 -11 105 -24 112 -30 7 -6 13 -8 13 -5 0 3 14 1 30 -4 17
-6 30 -14 30 -17 -1 -7 -93 -70 -153 -106 -18 -10 -34 -22 -37 -26 -3 -4 -25
-20 -49 -36 -24 -16 -55 -37 -69 -46 -14 -9 -30 -14 -35 -11 -6 3 -7 1 -3 -5
4 -7 -10 -22 -34 -37 -47 -29 -53 -60 -15 -67 14 -3 29 0 33 6 15 24 414 296
434 296 19 -1 110 -69 104 -79 -5 -8 -87 -49 -179 -90 -26 -12 -53 -19 -59
-15 -6 4 -8 3 -5 -3 4 -6 -13 -18 -36 -28 -161 -69 -247 -116 -247 -135 0 -13
7 -20 19 -20 17 0 138 51 299 126 40 19 75 34 78 34 3 0 38 16 77 35 44 22 78
33 90 29 13 -4 17 -2 13 5 -4 6 -2 11 5 11 7 0 9 -8 6 -21 -4 -14 -2 -19 8
-15 19 7 37 -76 29 -130 -5 -39 -8 -43 -22 -32 -14 11 -14 10 -5 -6 14 -25 0
-66 -41 -126 -17 -25 -34 -47 -37 -50 -3 -3 -14 -20 -24 -37 -11 -18 -22 -33
-26 -33 -4 0 -38 -31 -75 -70 -37 -38 -74 -70 -81 -70 -8 0 -11 -5 -7 -11 4
-8 -1 -9 -17 -4 -15 4 -19 3 -11 -3 10 -7 9 -12 -5 -23 -31 -26 -78 -54 -86
-51 -5 1 -6 -1 -3 -6 6 -9 -46 -52 -64 -52 -5 0 -10 -5 -10 -11 0 -6 -7 -9
-15 -6 -8 4 -17 1 -21 -5 -5 -7 -2 -8 7 -4 8 4 3 -2 -11 -13 -14 -11 -28 -21
-32 -21 -4 0 -32 -15 -61 -34 -38 -24 -58 -31 -69 -25 -11 6 -15 5 -14 -7 2
-22 -79 -66 -108 -58 -14 3 -27 1 -31 -6 -5 -9 -1 -10 15 -5 15 5 20 4 16 -4
-4 -6 -11 -11 -15 -11 -5 0 -30 -10 -57 -22 -27 -12 -52 -23 -56 -24 -5 -1
-11 -3 -15 -4 -5 -1 -11 -2 -15 -1 -5 0 -8 -5 -8 -12 0 -8 -4 -7 -10 3 -8 13
-10 12 -10 -2 0 -10 -5 -18 -11 -18 -5 0 -8 3 -6 8 3 4 -7 8 -21 9 -23 1 -24
0 -8 -9 15 -8 16 -12 5 -19 -19 -12 -32 -11 -24 1 6 9 0 12 -35 14 -16 1 -60
-36 -60 -52 0 -6 -11 -9 -25 -7 -14 1 -25 -2 -25 -8 0 -5 -7 -4 -16 3 -12 11
-15 11 -12 0 2 -7 -3 -15 -11 -18 -8 -2 -11 0 -7 6 3 6 1 14 -6 18 -7 4 -10 4
-6 -1 9 -10 -17 -35 -37 -35 -9 0 -26 5 -38 12 -20 10 -21 10 -7 -7 14 -16 13
-17 -7 -11 -12 4 -24 3 -27 -3 -3 -5 -24 -8 -46 -7 -22 0 -40 -2 -40 -6 0 -4
-26 -9 -57 -13 -127 -13 -147 -16 -156 -22 -5 -3 -13 1 -18 8 -5 8 -9 9 -9 3
0 -6 -10 -10 -22 -9 -13 1 -26 -2 -29 -8 -4 -5 -15 -4 -29 3 -17 9 -24 9 -30
0 -4 -7 -25 -11 -52 -9 -24 2 -48 0 -53 -3 -17 -10 -504 -7 -510 2 -3 6 -22 8
-41 5 -18 -2 -34 -1 -34 3 0 4 -25 7 -56 7 -30 -1 -58 3 -60 7 -3 5 -13 6 -22
4 -10 -3 -30 1 -45 9 -15 8 -25 10 -22 5 8 -13 -2 -13 -28 1 -12 7 -34 12 -49
11 -16 0 -26 3 -24 7 3 4 -7 8 -22 8 -15 0 -40 6 -57 14 -16 7 -34 14 -40 14
-20 3 -114 52 -109 57 3 3 -2 8 -11 12 -11 4 -14 2 -8 -7 4 -6 -13 3 -37 22
-52 40 -72 58 -51 46 9 -5 12 -4 7 3 -4 7 -13 12 -20 12 -7 0 -29 21 -49 46
-31 40 -35 51 -32 92 3 34 1 42 -5 27 -6 -13 -8 1 -4 45 5 68 31 143 45 134 5
-3 6 3 2 12 -5 13 -3 15 7 9 9 -6 11 -4 6 4 -5 7 0 18 10 26 19 15 94 14 321
-1 82 -5 94 -4 99 11 9 21 -11 34 -51 34 -26 -1 -251 9 -312 13 -19 2 -17 7
25 50 30 31 52 46 62 42 8 -3 62 -16 120 -28 58 -12 110 -24 115 -27 6 -3 36
-7 68 -8 45 -2 57 1 57 13 0 10 -16 19 -42 26 -88 23 -115 30 -183 45 -105 24
-103 22 -71 51 21 20 35 25 59 21 47 -7 180 -48 195 -59 6 -6 12 -8 12 -5 0 3
24 -2 54 -13 54 -18 76 -14 76 16 0 7 -53 31 -117 53 -65 23 -133 47 -151 53
l-32 12 57 37 c90 56 183 104 241 124 52 17 54 17 67 -1 64 -92 165 -145 276
-146 27 0 49 -2 49 -5 0 -3 -8 -17 -19 -31 -49 -69 -66 -194 -34 -255 21 -41
82 -106 125 -133 48 -31 183 -76 225 -76 18 0 33 -3 33 -6 0 -4 53 -6 117 -5
109 1 153 4 241 17 64 10 186 47 250 77 35 16 66 29 69 29 3 0 17 9 32 19 15
11 33 21 40 23 14 3 88 65 131 109 14 14 39 50 55 80 26 47 30 64 30 129 0 83
-14 119 -64 165 -17 17 -27 35 -24 44 4 13 3 13 -5 2 -5 -7 -15 -11 -20 -7
-20 12 -2 33 37 45 21 6 61 21 87 33 27 12 52 21 57 20 4 -1 6 1 5 6 -2 4 1 8
5 9 5 1 18 14 29 28 11 14 26 24 34 21 8 -3 11 0 8 8 -3 8 0 17 7 22 8 4 10 3
5 -4 -4 -7 -2 -12 3 -12 6 0 10 8 9 18 -1 9 2 38 6 65 l8 47 87 -1 c47 -1 131
-10 186 -21z m-1030 -88 c3 -6 -1 -7 -9 -4 -18 7 -21 14 -7 14 6 0 13 -4 16
-10z m-45 -15 c-6 -8 -9 -19 -5 -24 4 -7 0 -8 -10 -5 -14 6 -14 8 1 25 20 22
32 26 14 4z m-330 -24 c0 -5 -9 -7 -20 -4 -14 4 -20 0 -20 -13 0 -9 -3 -15 -6
-11 -4 3 -4 13 -1 22 7 16 47 21 47 6z m300 -15 c0 -2 -8 -10 -17 -17 -16 -13
-17 -12 -4 4 13 16 21 21 21 13z m-229 -63 c13 -16 12 -17 -3 -4 -17 13 -22
21 -14 21 2 0 10 -8 17 -17z m-22 -6 c8 -10 7 -14 -4 -14 -8 0 -15 6 -15 14 0
7 2 13 4 13 2 0 9 -6 15 -13z m2483 -958 c29 -6 63 -13 76 -15 26 -5 29 -37 8
-88 -27 -66 -108 -107 -287 -146 -146 -32 -189 -89 -130 -172 36 -51 46 -91
36 -154 -5 -38 -16 -56 -55 -95 -27 -27 -53 -49 -58 -49 -5 0 -14 18 -21 40
-11 38 -45 80 -98 122 -20 15 -87 32 -172 41 -19 2 -56 -4 -82 -14 -27 -10
-54 -17 -61 -15 -7 1 -9 1 -5 -2 5 -2 -4 -17 -19 -33 -21 -22 -30 -26 -37 -17
-5 8 -6 5 -2 -9 5 -18 2 -23 -13 -23 -22 0 -44 42 -35 67 4 11 3 14 -5 9 -19
-11 -3 77 16 92 10 7 16 18 14 23 -6 23 48 103 140 210 39 44 136 118 196 148
56 28 147 60 227 79 55 14 302 14 367 1z m-1777 -89 c-9 -14 -65 -42 -65 -33
0 9 50 42 63 43 5 0 5 -5 2 -10z m-218 -1076 c71 -21 138 -84 149 -140 8 -41
-11 -86 -52 -125 -23 -22 -62 -20 -48 2 4 7 3 9 -3 6 -6 -4 -22 11 -37 33 -14
22 -24 40 -20 40 3 0 -3 12 -14 28 -16 23 -29 56 -57 150 -8 27 5 28 82 6z
m-1417 -38 c0 -14 -41 -98 -46 -93 -5 5 31 107 38 107 4 0 8 -6 8 -14z m-70
-164 c0 -15 -30 -69 -45 -82 -8 -7 -4 8 9 33 14 25 22 48 19 51 -4 3 -1 6 5 6
7 0 12 -4 12 -8z m-100 -197 c-7 -8 -17 -15 -23 -15 -5 0 -3 8 6 18 10 10 18
25 18 33 1 8 3 7 6 -4 3 -10 -1 -24 -7 -32z m1598 -94 c17 -9 31 -10 54 -2 17
6 38 11 47 11 24 -1 -50 -39 -76 -40 -25 0 -63 32 -63 53 0 8 3 9 8 1 4 -6 17
-17 30 -23z m317 -143 c-13 -33 -95 -62 -110 -38 -4 6 5 10 20 10 32 0 85 26
85 42 0 6 2 9 5 6 3 -3 3 -12 0 -20z m193 -44 c-15 -35 -45 -64 -66 -64 -18 0
-52 28 -52 43 0 5 19 7 41 5 36 -3 44 0 62 24 25 34 32 30 15 -8z"/>
<path d="M2328 3403 c7 -3 16 -2 19 1 4 3 -2 6 -13 5 -11 0 -14 -3 -6 -6z"/>
<path d="M2358 3383 c7 -3 16 -2 19 1 4 3 -2 6 -13 5 -11 0 -14 -3 -6 -6z"/>
<path d="M3755 3759 c-4 -6 -5 -12 -2 -15 2 -3 7 2 10 11 7 17 1 20 -8 4z"/>
<path d="M3710 3745 c-8 -9 -8 -15 -2 -15 12 0 26 19 19 26 -2 2 -10 -2 -17
-11z"/>
<path d="M3615 3650 c10 -11 23 -20 28 -20 6 0 0 9 -13 20 -13 11 -25 20 -28
20 -3 0 3 -9 13 -20z"/>
<path d="M3468 3593 c7 -3 16 -2 19 1 4 3 -2 6 -13 5 -11 0 -14 -3 -6 -6z"/>
<path d="M3741 3573 c-18 -20 -6 -29 14 -10 8 9 12 18 8 20 -5 3 -14 -2 -22
-10z"/>
<path d="M3608 3533 c6 -2 18 -2 25 0 6 3 1 5 -13 5 -14 0 -19 -2 -12 -5z"/>
<path d="M3668 3523 c7 -3 16 -2 19 1 4 3 -2 6 -13 5 -11 0 -14 -3 -6 -6z"/>
<path d="M2072 3401 c2 -8 15 -21 29 -30 19 -11 21 -12 9 0 -8 8 -21 21 -29
29 -11 12 -12 12 -9 1z"/>
<path d="M4440 3395 c-25 -7 -106 -29 -180 -48 -74 -20 -157 -43 -184 -51 -27
-8 -52 -14 -55 -14 -3 1 -15 -2 -26 -6 -11 -5 -26 -10 -32 -12 -7 -2 -13 -10
-13 -19 0 -18 40 -36 55 -25 9 6 51 18 120 33 11 3 86 23 167 46 82 22 151 40
155 40 26 -4 47 4 73 30 17 15 30 30 30 33 0 10 -66 5 -110 -7z"/>
<path d="M3661 3354 c0 -11 3 -14 6 -6 3 7 2 16 -1 19 -3 4 -6 -2 -5 -13z"/>
<path d="M4456 3304 c-11 -8 -16 -14 -10 -14 13 0 39 18 34 24 -3 2 -14 -2
-24 -10z"/>
<path d="M3676 3277 c3 -10 9 -15 12 -12 3 3 0 11 -7 18 -10 9 -11 8 -5 -6z"/>
<path d="M4404 3178 c0 -16 2 -16 18 -1 10 9 18 17 18 17 0 1 -8 2 -18 2 -10
0 -18 -8 -18 -18z"/>
<path d="M3640 3174 c0 -3 7 -12 15 -20 16 -17 18 -14 9 10 -6 15 -24 23 -24
10z"/>
<path d="M3575 3061 c-3 -5 -1 -12 5 -16 5 -3 10 1 10 9 0 18 -6 21 -15 7z"/>
<path d="M3500 2995 c-7 -9 -8 -15 -2 -15 5 0 12 7 16 15 3 8 4 15 2 15 -2 0
-9 -7 -16 -15z"/>
<path d="M4185 2940 c3 -5 8 -10 11 -10 2 0 4 5 4 10 0 6 -5 10 -11 10 -5 0
-7 -4 -4 -10z"/>
<path d="M3321 2899 c-18 -6 -31 -12 -29 -14 5 -5 78 14 78 20 0 6 -8 5 -49
-6z"/>
<path d="M3235 2860 c-3 -6 1 -7 9 -4 18 7 21 14 7 14 -6 0 -13 -4 -16 -10z"/>
<path d="M3158 2833 c7 -3 16 -2 19 1 4 3 -2 6 -13 5 -11 0 -14 -3 -6 -6z"/>
<path d="M2560 2816 c0 -2 7 -6 15 -10 8 -3 15 -1 15 4 0 6 -7 10 -15 10 -8 0
-15 -2 -15 -4z"/>
<path d="M3108 2813 c6 -2 18 -2 25 0 6 3 1 5 -13 5 -14 0 -19 -2 -12 -5z"/>
<path d="M1316 2743 c-4 -9 -3 -20 1 -24 4 -4 9 3 9 17 2 28 -1 31 -10 7z"/>
<path d="M2846 2704 c-21 -7 -53 -23 -72 -35 -18 -11 -38 -18 -44 -14 -6 4 -7
-1 -3 -11 5 -13 3 -16 -10 -11 -11 4 -14 2 -11 -7 3 -8 1 -17 -5 -21 -6 -3
-11 -24 -11 -45 0 -47 33 -76 75 -66 32 8 44 35 22 48 -24 13 -21 33 7 51 13
9 30 22 38 30 8 8 38 27 66 41 60 30 69 56 20 55 -18 0 -50 -7 -72 -15z"/>
<path d="M1346 2677 c3 -10 9 -15 12 -12 3 3 0 11 -7 18 -10 9 -11 8 -5 -6z"/>
<path d="M1425 2599 c-4 -6 -5 -12 -2 -15 2 -3 7 2 10 11 7 17 1 20 -8 4z"/>
<path d="M3636 2601 c-4 -5 3 -7 14 -4 23 6 26 13 6 13 -8 0 -17 -4 -20 -9z"/>
<path d="M1528 2533 c6 -2 18 -2 25 0 6 3 1 5 -13 5 -14 0 -19 -2 -12 -5z"/>
<path d="M1590 2490 c8 -5 20 -10 25 -10 6 0 3 5 -5 10 -8 5 -19 10 -25 10 -5
0 -3 -5 5 -10z"/>
<path d="M1688 2468 c5 -5 16 -8 23 -6 8 3 3 7 -10 11 -17 4 -21 3 -13 -5z"/>
<path d="M3215 2460 c3 -5 14 -10 23 -10 15 0 15 2 2 10 -20 13 -33 13 -25 0z"/>
<path d="M1730 2455 c0 -8 29 -12 39 -5 9 5 4 8 -13 8 -14 0 -26 -2 -26 -3z"/>
<path d="M3124 2445 c-18 -13 -18 -14 4 -8 12 3 25 9 28 14 8 14 -10 11 -32
-6z"/>
<path d="M2668 2383 c12 -2 30 -2 40 0 9 3 -1 5 -23 4 -22 0 -30 -2 -17 -4z"/>
<path d="M4627 2499 c7 -7 15 -10 18 -7 3 3 -2 9 -12 12 -14 6 -15 5 -6 -5z"/>
<path d="M4314 2087 c1 -20 4 -23 14 -15 7 6 9 14 5 17 -4 4 -11 10 -14 14 -4
5 -6 -3 -5 -16z"/>
<path d="M4350 2039 c0 -5 5 -7 10 -4 6 3 10 8 10 11 0 2 -4 4 -10 4 -5 0 -10
-5 -10 -11z"/>
<path d="M4726 1813 c-6 -14 -5 -15 5 -6 7 7 10 15 7 18 -3 3 -9 -2 -12 -12z"/>
<path d="M2651 1254 c0 -11 3 -14 6 -6 3 7 2 16 -1 19 -3 4 -6 -2 -5 -13z"/>
<path d="M2665 1230 c-3 -5 -1 -10 4 -10 6 0 11 5 11 10 0 6 -2 10 -4 10 -3 0
-8 -4 -11 -10z"/>
<path d="M1820 1210 c-6 -11 -8 -20 -6 -20 3 0 10 9 16 20 6 11 8 20 6 20 -3
0 -10 -9 -16 -20z"/>
<path d="M2671 1194 c0 -11 3 -14 6 -6 3 7 2 16 -1 19 -3 4 -6 -2 -5 -13z"/>
<path d="M1786 1145 c-3 -8 -1 -15 4 -15 6 0 10 7 10 15 0 8 -2 15 -4 15 -2 0
-6 -7 -10 -15z"/>
<path d="M1740 1040 c-9 -6 -10 -10 -3 -10 6 0 15 5 18 10 8 12 4 12 -15 0z"/>
<path d="M2693 360 c0 -25 2 -35 4 -22 2 12 2 32 0 45 -2 12 -4 2 -4 -23z"/>
<path d="M2712 340 c0 -14 2 -19 5 -12 2 6 2 18 0 25 -3 6 -5 1 -5 -13z"/>
<path d="M5467 349 c7 -7 15 -10 18 -7 3 3 -2 9 -12 12 -14 6 -15 5 -6 -5z"/>
<path d="M2686 227 c3 -10 9 -15 12 -12 3 3 0 11 -7 18 -10 9 -11 8 -5 -6z"/>
<path d="M1936 103 c-13 -13 -20 -15 -23 -5 -7 17 -50 15 -57 -4 -22 -56 9
-94 75 -94 53 0 69 13 69 56 0 64 -26 83 -64 47z"/>
</g>
</svg>
